<?xml version="1.0" encoding="UTF-8" standalone="no"?><!DOCTYPE svg PUBLIC "-//W3C//DTD SVG 1.1//EN" "http://www.w3.org/Graphics/SVG/1.1/DTD/svg11.dtd"><svg width="100%" height="100%" viewBox="0 0 128 38" version="1.1" xmlns="http://www.w3.org/2000/svg" xmlns:xlink="http://www.w3.org/1999/xlink" xml:space="preserve" xmlns:serif="http://www.serif.com/" style="fill-rule:evenodd;clip-rule:evenodd;stroke-linejoin:round;stroke-miterlimit:2;"><g transform="matrix(0.045827,0,0,0.045827,-34.2014,-27.5572)"><g transform="matrix(300,0,0,300,730.716,813.731)"><path d="M0.16,-0.614l0,0.202l0.259,0c0.005,0 0.008,0.001 0.011,0.004c0.003,0.003 0.004,0.006 0.004,0.011l0,0.056c0,0.005 -0.001,0.008 -0.004,0.011c-0.003,0.003 -0.006,0.004 -0.011,0.004l-0.259,0l0,0.24l0.338,0c0.005,0 0.008,0.001 0.011,0.004c0.003,0.003 0.004,0.006 0.004,0.011l0,0.056c0,0.005 -0.001,0.008 -0.004,0.011c-0.003,0.003 -0.006,0.004 -0.011,0.004l-0.413,0c-0.005,0 -0.008,-0.001 -0.011,-0.004c-0.003,-0.003 -0.004,-0.006 -0.004,-0.011l0,-0.67c0,-0.005 0.001,-0.008 0.004,-0.011c0.003,-0.003 0.006,-0.004 0.011,-0.004l0.413,0c0.005,0 0.008,0.001 0.011,0.004c0.003,0.003 0.004,0.006 0.004,0.011l0,0.056c0,0.005 -0.001,0.008 -0.004,0.011c-0.003,0.003 -0.006,0.004 -0.011,0.004l-0.338,0Z" style="fill:#fff;fill-rule:nonzero;"/></g><g transform="matrix(300,0,0,300,897.216,813.731)"><path d="M0.075,0c-0.005,0 -0.008,-0.001 -0.011,-0.004c-0.003,-0.003 -0.004,-0.006 -0.004,-0.011l0,-0.431c0,-0.009 0.004,-0.014 0.012,-0.017l0.057,-0.021c0.001,-0.001 0.003,-0.001 0.006,-0.001c0.007,0 0.011,0.004 0.011,0.013l0,0.051c0.016,-0.023 0.036,-0.041 0.06,-0.053c0.024,-0.012 0.05,-0.018 0.077,-0.018c0.028,0 0.054,0.007 0.078,0.021c0.024,0.013 0.043,0.034 0.058,0.061c0.019,-0.029 0.041,-0.05 0.068,-0.063c0.028,-0.013 0.056,-0.019 0.085,-0.019c0.055,0 0.097,0.017 0.128,0.051c0.031,0.034 0.046,0.085 0.046,0.154l0,0.272c0,0.005 -0.001,0.008 -0.004,0.011c-0.003,0.003 -0.006,0.004 -0.011,0.004l-0.056,0c-0.005,0 -0.008,-0.001 -0.011,-0.004c-0.003,-0.003 -0.004,-0.006 -0.004,-0.011l0,-0.261c0,-0.042 -0.009,-0.074 -0.028,-0.097c-0.019,-0.023 -0.045,-0.034 -0.079,-0.034c-0.034,0 -0.06,0.011 -0.079,0.034c-0.019,0.023 -0.028,0.055 -0.028,0.097l0,0.261c0,0.005 -0.001,0.008 -0.004,0.011c-0.003,0.003 -0.006,0.004 -0.011,0.004l-0.056,0c-0.005,0 -0.008,-0.001 -0.011,-0.004c-0.003,-0.003 -0.004,-0.006 -0.004,-0.011l0,-0.261c0,-0.042 -0.009,-0.074 -0.028,-0.097c-0.019,-0.023 -0.045,-0.034 -0.079,-0.034c-0.034,0 -0.06,0.011 -0.079,0.034c-0.019,0.023 -0.028,0.055 -0.028,0.097l0,0.261c0,0.005 -0.001,0.008 -0.004,0.011c-0.003,0.003 -0.006,0.004 -0.011,0.004l-0.056,0Z" style="fill:#fff;fill-rule:nonzero;"/></g><g transform="matrix(300,0,0,300,1137.22,813.731)"><path d="M0.289,-0.492c0.044,0 0.083,0.01 0.117,0.031c0.033,0.021 0.059,0.049 0.077,0.084c0.018,0.035 0.027,0.072 0.027,0.113l0,0.037c0,0.005 -0.001,0.008 -0.004,0.011c-0.003,0.003 -0.006,0.004 -0.011,0.004l-0.361,0c0.006,0.041 0.023,0.075 0.051,0.101c0.028,0.026 0.065,0.039 0.112,0.039c0.051,0 0.101,-0.018 0.151,-0.055c0.003,-0.003 0.007,-0.004 0.01,-0.004c0.005,0 0.008,0.002 0.011,0.007l0.028,0.042c0.002,0.003 0.003,0.006 0.003,0.009c0,0.005 -0.002,0.009 -0.006,0.012c-0.027,0.023 -0.057,0.041 -0.092,0.054c-0.035,0.013 -0.07,0.019 -0.106,0.019c-0.051,0 -0.096,-0.011 -0.134,-0.032c-0.038,-0.021 -0.067,-0.051 -0.088,-0.089c-0.02,-0.037 -0.03,-0.08 -0.03,-0.128c0,-0.051 0.011,-0.096 0.032,-0.135c0.022,-0.039 0.052,-0.068 0.089,-0.089c0.037,-0.021 0.079,-0.031 0.124,-0.031Zm0.13,0.202c-0.002,-0.033 -0.015,-0.061 -0.038,-0.084c-0.023,-0.023 -0.054,-0.034 -0.093,-0.034c-0.039,0 -0.071,0.01 -0.098,0.031c-0.027,0.021 -0.044,0.05 -0.053,0.087l0.282,0Z" style="fill:#fff;fill-rule:nonzero;"/></g><g transform="matrix(300,0,0,300,1303.42,813.731)"><path d="M0.384,-0.434c0.001,0.001 0.001,0.003 0.001,0.006c0,0.007 -0.003,0.011 -0.01,0.014l-0.229,0.095l0,0.304c0,0.005 -0.001,0.008 -0.004,0.011c-0.003,0.003 -0.006,0.004 -0.011,0.004l-0.056,0c-0.005,0 -0.008,-0.001 -0.011,-0.004c-0.003,-0.003 -0.004,-0.006 -0.004,-0.011l0,-0.431c0,-0.009 0.004,-0.014 0.012,-0.017l0.057,-0.021c0.001,-0.001 0.003,-0.001 0.006,-0.001c0.007,0 0.011,0.004 0.011,0.013l0,0.069l0.2,-0.083c0.004,-0.001 0.006,-0.002 0.007,-0.002c0.005,0 0.01,0.003 0.013,0.01l0.018,0.044Z" style="fill:#fff;fill-rule:nonzero;"/></g><g transform="matrix(300,0,0,300,1416.52,813.731)"><path d="M0.281,0.212c-0.079,0 -0.15,-0.023 -0.211,-0.069c-0.004,-0.004 -0.006,-0.008 -0.006,-0.012c0,-0.004 0.001,-0.007 0.002,-0.009l0.029,-0.05c0.003,-0.005 0.007,-0.008 0.011,-0.008c0.001,0 0.005,0.001 0.01,0.004c0.025,0.019 0.051,0.033 0.079,0.044c0.029,0.011 0.058,0.016 0.087,0.016c0.053,0 0.093,-0.016 0.122,-0.047c0.029,-0.031 0.043,-0.074 0.043,-0.129l0,-0.006c-0.015,0.018 -0.037,0.034 -0.067,0.047c-0.029,0.013 -0.062,0.019 -0.099,0.019c-0.047,0 -0.089,-0.011 -0.125,-0.034c-0.036,-0.023 -0.064,-0.053 -0.083,-0.091c-0.019,-0.039 -0.029,-0.081 -0.029,-0.127c0,-0.05 0.011,-0.094 0.033,-0.132c0.023,-0.038 0.053,-0.067 0.09,-0.088c0.037,-0.021 0.078,-0.032 0.122,-0.032c0.033,0 0.064,0.006 0.092,0.018c0.029,0.012 0.051,0.028 0.066,0.049l0,-0.021c0,-0.009 0.004,-0.014 0.012,-0.017l0.057,-0.021c0.004,-0.001 0.006,-0.002 0.007,-0.002c0.007,0 0.01,0.004 0.01,0.013l0,0.407c0,0.094 -0.022,0.164 -0.066,0.21c-0.044,0.045 -0.106,0.068 -0.186,0.068Zm0.01,-0.285c0.045,0 0.083,-0.015 0.112,-0.044c0.03,-0.029 0.045,-0.071 0.045,-0.124c0,-0.053 -0.015,-0.094 -0.044,-0.123c-0.03,-0.029 -0.068,-0.044 -0.113,-0.044c-0.046,0 -0.084,0.015 -0.114,0.044c-0.03,0.029 -0.045,0.07 -0.045,0.123c0,0.053 0.015,0.094 0.045,0.124c0.031,0.029 0.069,0.044 0.114,0.044Z" style="fill:#fff;fill-rule:nonzero;"/></g><g transform="matrix(300,0,0,300,1594.42,813.731)"><path d="M0.074,-0.535c-0.001,0.001 -0.003,0.001 -0.006,0.001c-0.007,0 -0.011,-0.004 -0.011,-0.013l0,-0.071c0,-0.009 0.004,-0.014 0.012,-0.017l0.063,-0.024c0.001,-0.001 0.003,-0.001 0.006,-0.001c0.007,0 0.011,0.004 0.011,0.013l0,0.074c0,0.008 -0.004,0.014 -0.012,0.017l-0.063,0.021Zm0.001,0.535c-0.005,0 -0.008,-0.001 -0.011,-0.004c-0.003,-0.003 -0.004,-0.006 -0.004,-0.011l0,-0.431c0,-0.009 0.004,-0.014 0.012,-0.017l0.057,-0.021c0.001,-0.001 0.003,-0.001 0.006,-0.001c0.007,0 0.011,0.004 0.011,0.013l0,0.457c0,0.005 -0.001,0.008 -0.004,0.011c-0.003,0.003 -0.006,0.004 -0.011,0.004l-0.056,0Z" style="fill:#fff;fill-rule:nonzero;"/></g><g transform="matrix(300,0,0,300,1656.22,813.731)"><path d="M0.075,0c-0.005,0 -0.008,-0.001 -0.011,-0.004c-0.003,-0.003 -0.004,-0.006 -0.004,-0.011l0,-0.431c0,-0.009 0.004,-0.014 0.012,-0.017l0.057,-0.021c0.001,-0.001 0.003,-0.001 0.006,-0.001c0.007,0 0.011,0.004 0.011,0.013l0,0.051c0.017,-0.025 0.039,-0.043 0.064,-0.054c0.026,-0.011 0.053,-0.017 0.082,-0.017c0.037,0 0.07,0.008 0.099,0.025c0.029,0.016 0.052,0.04 0.07,0.073c0.017,0.032 0.025,0.071 0.025,0.117l0,0.262c0,0.005 -0.001,0.008 -0.004,0.011c-0.003,0.003 -0.006,0.004 -0.011,0.004l-0.056,0c-0.005,0 -0.008,-0.001 -0.011,-0.004c-0.003,-0.003 -0.004,-0.006 -0.004,-0.011l0,-0.259c0,-0.042 -0.011,-0.075 -0.034,-0.098c-0.022,-0.023 -0.052,-0.035 -0.09,-0.035c-0.039,0 -0.07,0.012 -0.094,0.036c-0.024,0.023 -0.036,0.056 -0.036,0.097l0,0.259c0,0.005 -0.001,0.008 -0.004,0.011c-0.003,0.003 -0.006,0.004 -0.011,0.004l-0.056,0Z" style="fill:#fff;fill-rule:nonzero;"/></g><g transform="matrix(300,0,0,300,1818.22,813.731)"><path d="M0.281,0.212c-0.079,0 -0.15,-0.023 -0.211,-0.069c-0.004,-0.004 -0.006,-0.008 -0.006,-0.012c0,-0.004 0.001,-0.007 0.002,-0.009l0.029,-0.05c0.003,-0.005 0.007,-0.008 0.011,-0.008c0.001,0 0.005,0.001 0.01,0.004c0.025,0.019 0.051,0.033 0.079,0.044c0.029,0.011 0.058,0.016 0.087,0.016c0.053,0 0.093,-0.016 0.122,-0.047c0.029,-0.031 0.043,-0.074 0.043,-0.129l0,-0.006c-0.015,0.018 -0.037,0.034 -0.067,0.047c-0.029,0.013 -0.062,0.019 -0.099,0.019c-0.047,0 -0.089,-0.011 -0.125,-0.034c-0.036,-0.023 -0.064,-0.053 -0.083,-0.091c-0.019,-0.039 -0.029,-0.081 -0.029,-0.127c0,-0.05 0.011,-0.094 0.033,-0.132c0.023,-0.038 0.053,-0.067 0.09,-0.088c0.037,-0.021 0.078,-0.032 0.122,-0.032c0.033,0 0.064,0.006 0.092,0.018c0.029,0.012 0.051,0.028 0.066,0.049l0,-0.021c0,-0.009 0.004,-0.014 0.012,-0.017l0.057,-0.021c0.004,-0.001 0.006,-0.002 0.007,-0.002c0.007,0 0.01,0.004 0.01,0.013l0,0.407c0,0.094 -0.022,0.164 -0.066,0.21c-0.044,0.045 -0.106,0.068 -0.186,0.068Zm0.01,-0.285c0.045,0 0.083,-0.015 0.112,-0.044c0.03,-0.029 0.045,-0.071 0.045,-0.124c0,-0.053 -0.015,-0.094 -0.044,-0.123c-0.03,-0.029 -0.068,-0.044 -0.113,-0.044c-0.046,0 -0.084,0.015 -0.114,0.044c-0.03,0.029 -0.045,0.07 -0.045,0.123c0,0.053 0.015,0.094 0.045,0.124c0.031,0.029 0.069,0.044 0.114,0.044Z" style="fill:#fff;fill-rule:nonzero;"/></g><g transform="matrix(300,0,0,300,2065.12,813.731)"><path d="M0.085,0c-0.005,0 -0.008,-0.001 -0.011,-0.004c-0.003,-0.003 -0.004,-0.006 -0.004,-0.011l0,-0.651c0,-0.009 0.004,-0.014 0.012,-0.017l0.061,-0.022c0.001,-0.001 0.003,-0.001 0.006,-0.001c0.007,0 0.011,0.004 0.011,0.013l0,0.678c0,0.005 -0.001,0.008 -0.004,0.011c-0.003,0.003 -0.006,0.004 -0.011,0.004l-0.06,0Z" style="fill:#fff;fill-rule:nonzero;"/></g><g transform="matrix(300,0,0,300,2134.12,813.731)"><path d="M0.248,0c-0.005,0 -0.008,-0.001 -0.011,-0.004c-0.003,-0.003 -0.004,-0.006 -0.004,-0.011l0,-0.599l-0.178,0c-0.005,0 -0.008,-0.001 -0.011,-0.004c-0.003,-0.003 -0.004,-0.006 -0.004,-0.011l0,-0.056c0,-0.005 0.001,-0.008 0.004,-0.011c0.003,-0.003 0.006,-0.004 0.011,-0.004l0.446,0c0.005,0 0.008,0.001 0.011,0.004c0.003,0.003 0.004,0.006 0.004,0.011l0,0.056c0,0.005 -0.001,0.008 -0.004,0.011c-0.003,0.003 -0.006,0.004 -0.011,0.004l-0.178,0l0,0.599c0,0.005 -0.001,0.008 -0.004,0.011c-0.003,0.003 -0.006,0.004 -0.011,0.004l-0.06,0Z" style="fill:#fff;fill-rule:nonzero;"/></g><g transform="matrix(600,0,0,600,730.716,1413.73)"><path d="M0.292,0.012c-0.055,0 -0.105,-0.009 -0.151,-0.028c-0.046,-0.019 -0.083,-0.044 -0.11,-0.076c-0.003,-0.004 -0.005,-0.009 -0.005,-0.015c0,-0.005 0.001,-0.01 0.004,-0.013l0.049,-0.065c0.004,-0.005 0.008,-0.008 0.013,-0.008c0.005,0 0.009,0.002 0.013,0.006c0.029,0.026 0.058,0.046 0.088,0.059c0.03,0.014 0.063,0.021 0.098,0.021c0.035,0 0.063,-0.008 0.082,-0.024c0.019,-0.016 0.029,-0.036 0.029,-0.061c0,-0.019 -0.005,-0.034 -0.014,-0.047c-0.009,-0.012 -0.023,-0.022 -0.041,-0.031c-0.02,-0.009 -0.047,-0.018 -0.083,-0.027c-0.044,-0.012 -0.081,-0.025 -0.112,-0.04c-0.03,-0.016 -0.055,-0.036 -0.074,-0.064c-0.019,-0.026 -0.028,-0.061 -0.028,-0.104c0,-0.041 0.011,-0.077 0.032,-0.108c0.022,-0.031 0.051,-0.056 0.088,-0.073c0.037,-0.017 0.078,-0.026 0.123,-0.026c0.083,0 0.151,0.025 0.204,0.074c0.005,0.005 0.007,0.009 0.007,0.013c0,0.003 -0.002,0.008 -0.005,0.013l-0.046,0.066c-0.003,0.005 -0.007,0.008 -0.012,0.008c-0.004,0 -0.009,-0.002 -0.014,-0.006c-0.019,-0.017 -0.039,-0.029 -0.061,-0.037c-0.021,-0.008 -0.045,-0.012 -0.072,-0.012c-0.035,0 -0.063,0.008 -0.082,0.024c-0.02,0.015 -0.03,0.035 -0.03,0.059c0,0.019 0.005,0.034 0.016,0.045c0.011,0.012 0.025,0.022 0.042,0.029c0.017,0.007 0.041,0.014 0.072,0.022c0.05,0.014 0.09,0.029 0.121,0.044c0.031,0.015 0.055,0.036 0.073,0.064c0.018,0.026 0.027,0.062 0.027,0.107c0,0.039 -0.009,0.074 -0.027,0.106c-0.019,0.032 -0.046,0.058 -0.082,0.077c-0.037,0.019 -0.081,0.028 -0.132,0.028Z" style="fill:#fff;fill-rule:nonzero;"/></g><g transform="matrix(600,0,0,600,1066.72,1413.73)"><path d="M0.691,-0.021c0.001,0.004 0.002,0.007 0.002,0.009c0,0.008 -0.005,0.012 -0.016,0.012l-0.101,0c-0.01,0 -0.017,-0.004 -0.02,-0.013l-0.055,-0.139l-0.282,0l-0.055,0.139c-0.004,0.009 -0.011,0.013 -0.021,0.013l-0.101,0c-0.011,0 -0.016,-0.004 -0.016,-0.013l0.002,-0.008l0.273,-0.665c0.003,-0.009 0.01,-0.014 0.021,-0.014l0.075,0c0.011,0 0.018,0.005 0.022,0.014l0.272,0.665Zm-0.235,-0.244l-0.096,-0.243l-0.096,0.243l0.192,0Z" style="fill:#fff;fill-rule:nonzero;"/></g><g transform="matrix(600,0,0,600,1498.12,1413.73)"><path d="M0.083,0c-0.006,0 -0.011,-0.002 -0.014,-0.005c-0.003,-0.003 -0.005,-0.008 -0.005,-0.013l0,-0.664c0,-0.005 0.002,-0.01 0.005,-0.013c0.003,-0.003 0.008,-0.005 0.014,-0.005l0.082,0c0.009,0 0.017,0.004 0.022,0.011l0.34,0.454l0,-0.415c0,-0.01 0.005,-0.017 0.015,-0.021l0.09,-0.033c0.004,-0.001 0.007,-0.002 0.009,-0.002c0.009,0 0.013,0.005 0.013,0.016l0,0.672c0,0.005 -0.002,0.01 -0.005,0.013c-0.003,0.003 -0.008,0.005 -0.014,0.005l-0.073,0c-0.009,0 -0.016,-0.004 -0.022,-0.011l-0.349,-0.466l0,0.459c0,0.005 -0.002,0.01 -0.005,0.013c-0.003,0.003 -0.008,0.005 -0.014,0.005l-0.089,0Z" style="fill:#fff;fill-rule:nonzero;"/></g><g transform="matrix(600,0,0,600,1928.92,1413.73)"><path d="M0.083,0c-0.006,0 -0.011,-0.002 -0.014,-0.005c-0.003,-0.003 -0.005,-0.008 -0.005,-0.013l0,-0.664c0,-0.005 0.002,-0.01 0.005,-0.013c0.003,-0.003 0.008,-0.005 0.014,-0.005l0.23,0c0.062,0 0.118,0.014 0.167,0.042c0.049,0.028 0.087,0.068 0.115,0.121c0.028,0.053 0.042,0.115 0.042,0.187c0,0.072 -0.014,0.134 -0.042,0.187c-0.028,0.053 -0.066,0.093 -0.115,0.121c-0.049,0.028 -0.105,0.042 -0.167,0.042l-0.23,0Zm0.221,-0.118c0.06,0 0.109,-0.019 0.146,-0.058c0.037,-0.039 0.056,-0.097 0.056,-0.174c0,-0.077 -0.019,-0.135 -0.056,-0.174c-0.037,-0.039 -0.086,-0.058 -0.146,-0.058l-0.111,0l0,0.464l0.111,0Z" style="fill:#fff;fill-rule:nonzero;"/></g><g transform="matrix(600,0,0,600,2338.72,1413.73)"><path d="M0.083,0c-0.006,0 -0.011,-0.002 -0.014,-0.005c-0.003,-0.003 -0.005,-0.008 -0.005,-0.013l0,-0.664c0,-0.005 0.002,-0.01 0.005,-0.013c0.003,-0.003 0.008,-0.005 0.014,-0.005l0.222,0c0.068,0 0.124,0.016 0.167,0.049c0.043,0.032 0.064,0.079 0.064,0.14c0,0.065 -0.026,0.113 -0.078,0.144c0.038,0.013 0.067,0.034 0.087,0.063c0.021,0.029 0.031,0.063 0.031,0.104c0,0.063 -0.022,0.112 -0.066,0.148c-0.044,0.034 -0.101,0.052 -0.171,0.052l-0.256,0Zm0.217,-0.412c0.033,0 0.058,-0.007 0.077,-0.021c0.018,-0.015 0.027,-0.036 0.027,-0.065c0,-0.028 -0.009,-0.049 -0.027,-0.063c-0.019,-0.014 -0.044,-0.021 -0.076,-0.021l-0.108,0l0,0.17l0.107,0Zm0.039,0.294c0.033,0 0.059,-0.007 0.078,-0.022c0.019,-0.015 0.028,-0.037 0.028,-0.066c0,-0.029 -0.009,-0.051 -0.028,-0.066c-0.019,-0.015 -0.045,-0.022 -0.078,-0.022l-0.146,0l0,0.176l0.146,0Z" style="fill:#fff;fill-rule:nonzero;"/></g><g transform="matrix(600,0,0,600,2701.12,1413.73)"><path d="M0.408,0.012c-0.069,0 -0.131,-0.016 -0.186,-0.047c-0.055,-0.031 -0.098,-0.075 -0.129,-0.13c-0.031,-0.054 -0.047,-0.116 -0.047,-0.185c0,-0.069 0.016,-0.131 0.047,-0.186c0.031,-0.054 0.074,-0.098 0.129,-0.129c0.055,-0.031 0.117,-0.047 0.186,-0.047c0.069,0 0.13,0.016 0.185,0.047c0.055,0.031 0.098,0.075 0.129,0.13c0.031,0.055 0.047,0.116 0.047,0.185c0,0.069 -0.016,0.131 -0.047,0.186c-0.031,0.055 -0.074,0.098 -0.129,0.129c-0.055,0.031 -0.116,0.047 -0.185,0.047Zm0,-0.12c0.045,0 0.085,-0.01 0.119,-0.031c0.035,-0.021 0.063,-0.05 0.082,-0.087c0.019,-0.037 0.029,-0.078 0.029,-0.124c0,-0.046 -0.01,-0.087 -0.029,-0.125c-0.019,-0.036 -0.046,-0.065 -0.082,-0.086c-0.035,-0.021 -0.074,-0.031 -0.119,-0.031c-0.045,0 -0.086,0.01 -0.121,0.031c-0.035,0.021 -0.062,0.05 -0.081,0.087c-0.019,0.037 -0.029,0.078 -0.029,0.124c0,0.046 0.01,0.087 0.029,0.124c0.019,0.037 0.046,0.066 0.082,0.087c0.034,0.021 0.075,0.031 0.12,0.031Z" style="fill:#fff;fill-rule:nonzero;"/></g><g transform="matrix(600,0,0,600,3166.12,1413.73)"><path d="M0.044,0c-0.011,0 -0.016,-0.004 -0.016,-0.012c0,-0.003 0.001,-0.006 0.003,-0.01l0.213,-0.338l-0.199,-0.318c-0.003,-0.003 -0.004,-0.007 -0.004,-0.011c0,-0.003 0.002,-0.006 0.005,-0.008c0.003,-0.002 0.006,-0.003 0.011,-0.003l0.104,0c0.009,0 0.017,0.004 0.022,0.012l0.133,0.212l0.133,-0.212c0.005,-0.008 0.013,-0.012 0.022,-0.012l0.104,0c0.005,0 0.009,0.001 0.012,0.003c0.003,0.002 0.004,0.005 0.004,0.008c0,0.004 -0.001,0.008 -0.004,0.011l-0.199,0.318l0.213,0.338c0.002,0.004 0.003,0.007 0.003,0.01c0,0.008 -0.005,0.012 -0.016,0.012l-0.104,0c-0.009,0 -0.017,-0.004 -0.022,-0.012l-0.146,-0.231l-0.146,0.231c-0.005,0.008 -0.012,0.012 -0.022,0.012l-0.104,0Z" style="fill:#fff;fill-rule:nonzero;"/></g></g></svg>