<?xml version="1.0" encoding="UTF-8" standalone="no"?>
<svg
   xmlns:dc="http://purl.org/dc/elements/1.1/"
   xmlns:cc="http://creativecommons.org/ns#"
   xmlns:rdf="http://www.w3.org/1999/02/22-rdf-syntax-ns#"
   xmlns:svg="http://www.w3.org/2000/svg"
   xmlns="http://www.w3.org/2000/svg"
   xmlns:sodipodi="http://sodipodi.sourceforge.net/DTD/sodipodi-0.dtd"
   xmlns:inkscape="http://www.inkscape.org/namespaces/inkscape"
   width="170.88921"
   height="61.5182"
   viewBox="0 0 170.88921 61.5182"
   version="1.1"
   id="svg102"
   sodipodi:docname="omnia-radix-logo.svg"
   inkscape:version="0.92.4 (5da689c313, 2019-01-14)">
  <metadata
     id="metadata108">
    <rdf:RDF>
      <cc:Work
         rdf:about="">
        <dc:format>image/svg+xml</dc:format>
        <dc:type
           rdf:resource="http://purl.org/dc/dcmitype/StillImage" />
        <dc:title />
      </cc:Work>
    </rdf:RDF>
  </metadata>
  <defs
     id="defs106" />
  <sodipodi:namedview
     pagecolor="#ffffff"
     bordercolor="#666666"
     borderopacity="1"
     objecttolerance="10"
     gridtolerance="10"
     guidetolerance="10"
     inkscape:pageopacity="0"
     inkscape:pageshadow="2"
     inkscape:window-width="1920"
     inkscape:window-height="986"
     id="namedview104"
     showgrid="false"
     inkscape:pagecheckerboard="true"
     inkscape:zoom="6.9570136"
     inkscape:cx="90.821299"
     inkscape:cy="26.157021"
     inkscape:window-x="-11"
     inkscape:window-y="-11"
     inkscape:window-maximized="1"
     inkscape:current-layer="Page-1" />
  <g
     id="Page-1"
     style="fill:none;fill-rule:evenodd;stroke:none;stroke-width:1"
     transform="translate(-0.47879665)">
    <rect
       height="64"
       width="455"
       y="-1"
       x="-6"
       id="background" />
    <g
       id="g3833">
      <path
         d="m 78.968,29.224 c 0.064,0.192001 0.096,0.335999 0.096,0.432 0,0.320002 -0.191998,0.559999 -0.576,0.72 l -11.232,4.608 v 13.152 c 0,0.576003 -0.287997,0.864 -0.864,0.864 h -3.888 c -0.288001,0 -0.511999,-0.08 -0.672,-0.24 -0.160001,-0.160001 -0.24,-0.367999 -0.24,-0.624 v -19.92 c 0,-0.512003 0.239998,-0.863999 0.72,-1.056 l 3.936,-1.392 c 0.192001,-0.064 0.32,-0.096 0.384,-0.096 0.192001,0 0.343999,0.072 0.456,0.216 0.112001,0.144001 0.168,0.343999 0.168,0.6 v 3.12 L 76.52,25.72 c 0.192001,-0.064 0.335999,-0.096 0.432,-0.096 0.320002,0 0.575999,0.191998 0.768,0.576 z m 13.776,20.352 c -2.400012,0 -4.471991,-0.535995 -6.216,-1.608 -1.744009,-1.072005 -3.079995,-2.535991 -4.008,-4.392 -0.928005,-1.856009 -1.392,-3.935989 -1.392,-6.24 0,-2.240011 0.511995,-4.271991 1.536,-6.096 1.024005,-1.824009 2.439991,-3.255995 4.248,-4.296 1.808009,-1.040005 3.831989,-1.56 6.072,-1.56 1.47201,0 2.82399,0.263997 4.056,0.792 1.23201,0.528003 2.152,1.303995 2.76,2.328 v -0.288 c 0,-0.512003 0.24,-0.863999 0.72,-1.056 l 3.936,-1.392 0.384,-0.096 c 0.416,0 0.624,0.255997 0.624,0.768 v 21.696 c 0,0.256001 -0.08,0.463999 -0.24,0.624 -0.16,0.160001 -0.384,0.24 -0.672,0.24 h -3.888 C 100.408,49 100.2,48.92 100.04,48.76 99.88,48.599999 99.8,48.392001 99.8,48.136 v -1.248 c -0.576,0.736004 -1.51199,1.367997 -2.808,1.896 -1.29601,0.528003 -2.71199,0.792 -4.248,0.792 z m 0.672,-5.328 c 1.88801,0 3.43199,-0.607994 4.632,-1.824 1.20001,-1.216006 1.8,-2.927989 1.8,-5.136 0,-2.04801 -0.59999,-3.671994 -1.8,-4.872 -1.20001,-1.200006 -2.74399,-1.8 -4.632,-1.8 -1.888009,0 -3.439994,0.599994 -4.656,1.8 -1.216006,1.200006 -1.824,2.82399 -1.824,4.872 0,2.208011 0.599994,3.919994 1.8,5.136 1.200006,1.216006 2.75999,1.824 4.68,1.824 z m 28.08,5.328 c -2.36801,0 -4.41599,-0.543995 -6.144,-1.632 -1.72801,-1.088005 -3.032,-2.551991 -3.912,-4.392 -0.88,-1.840009 -1.32,-3.863989 -1.32,-6.072 0,-2.400012 0.50399,-4.519991 1.512,-6.36 1.00801,-1.840009 2.37599,-3.255995 4.104,-4.248 1.72801,-0.992005 3.66399,-1.488 5.808,-1.488 1.60001,0 3.04799,0.287997 4.344,0.864 1.29601,0.576003 2.264,1.311995 2.904,2.208 V 17.704 c 0,-0.448002 0.24,-0.783999 0.72,-1.008 l 3.936,-1.488 c 0.096,-0.032 0.224,-0.048 0.384,-0.048 0.416,0 0.624,0.255997 0.624,0.768 v 32.208 c 0,0.576003 -0.288,0.864 -0.864,0.864 h -3.888 c -0.288,0 -0.512,-0.08 -0.672,-0.24 -0.16,-0.160001 -0.24,-0.367999 -0.24,-0.624 v -1.584 c -0.672,0.864004 -1.65599,1.583997 -2.952,2.16 -1.29601,0.576003 -2.74399,0.864 -4.344,0.864 z m 0.864,-5.232 c 1.92001,0 3.47999,-0.599994 4.68,-1.8 1.20001,-1.200006 1.8,-2.887989 1.8,-5.064 0,-2.208011 -0.59199,-3.903994 -1.776,-5.088 -1.18401,-1.184006 -2.75199,-1.776 -4.704,-1.776 -1.88801,0 -3.43199,0.599994 -4.632,1.8 -1.20001,1.200006 -1.8,2.887989 -1.8,5.064 0,2.144011 0.59999,3.823994 1.8,5.04 1.20001,1.216006 2.74399,1.824 4.632,1.824 z m 18.336,-20.016 c -0.096,0.032 -0.208,0.048 -0.336,0.048 -0.224,0 -0.4,-0.072 -0.528,-0.216 -0.128,-0.144001 -0.192,-0.327999 -0.192,-0.552 v -4.272 c 0,-0.480002 0.24,-0.815999 0.72,-1.008 l 4.368,-1.536 c 0.192,-0.064 0.32,-0.096 0.384,-0.096 0.192,0 0.344,0.072 0.456,0.216 0.112,0.144001 0.168,0.343999 0.168,0.6 v 4.368 c 0,0.512003 -0.24,0.847999 -0.72,1.008 z M 140.744,49 c -0.256,0 -0.464,-0.08 -0.624,-0.24 -0.16,-0.160001 -0.24,-0.367999 -0.24,-0.624 V 28.12 c 0,-0.480002 0.24,-0.815999 0.72,-1.008 l 3.936,-1.344 c 0.192,-0.064 0.304,-0.096 0.336,-0.096 0.224,0 0.392,0.072 0.504,0.216 0.112,0.144001 0.168,0.343999 0.168,0.6 v 21.648 c 0,0.256001 -0.08,0.463999 -0.24,0.624 -0.16,0.160001 -0.384,0.24 -0.672,0.24 z m 30.432,-1.056 c 0.128,0.160001 0.192,0.335999 0.192,0.528 0,0.160001 -0.072,0.287999 -0.216,0.384 C 171.008,48.952 170.824,49 170.6,49 h -4.464 c -0.448,0 -0.816,-0.191998 -1.104,-0.576 l -4.608,-6.528 -4.608,6.528 C 155.528,48.808002 155.16,49 154.712,49 h -4.464 c -0.224,0 -0.408,-0.048 -0.552,-0.144 -0.144,-0.096 -0.216,-0.223999 -0.216,-0.384 0,-0.192001 0.064,-0.367999 0.192,-0.528 l 7.488,-10.656 -7.248,-10.272 c -0.128,-0.160001 -0.192,-0.335999 -0.192,-0.528 0,-0.160001 0.072,-0.287999 0.216,-0.384 0.144,-0.096 0.328,-0.144 0.552,-0.144 h 4.464 c 0.448,0 0.816,0.191998 1.104,0.576 l 4.368,6.192 4.368,-6.192 c 0.288,-0.384002 0.656,-0.576 1.104,-0.576 h 4.464 c 0.224,0 0.408,0.048 0.552,0.144 0.144,0.096 0.216,0.223999 0.216,0.384 0,0.192001 -0.064,0.367999 -0.192,0.528 l -7.248,10.272 z"
         id="radix"
         inkscape:connector-curvature="0"
         style="fill:#ffffff" />
      <path
         d="m 64.82,18.24 c -0.946671,0 -1.796663,-0.216664 -2.55,-0.65 -0.753337,-0.433335 -1.339998,-1.03333 -1.76,-1.8 -0.420002,-0.766671 -0.63,-1.629995 -0.63,-2.59 0,-0.960005 0.209998,-1.82333 0.63,-2.59 0.420002,-0.766671 1.006663,-1.366664 1.76,-1.8 0.753337,-0.4333355 1.603329,-0.65 2.55,-0.65 0.946671,0 1.79333,0.2166645 2.54,0.65 0.74667,0.433336 1.329998,1.033329 1.75,1.8 0.420002,0.76667 0.63,1.629995 0.63,2.59 0,0.960005 -0.209998,1.823329 -0.63,2.59 -0.420002,0.76667 -1.00333,1.366665 -1.75,1.8 -0.74667,0.433336 -1.593329,0.65 -2.54,0.65 z m 0,-1.68 c 0.960005,0 1.726664,-0.319997 2.3,-0.96 0.573336,-0.640003 0.86,-1.439995 0.86,-2.4 0,-0.960005 -0.286664,-1.759997 -0.86,-2.4 -0.573336,-0.640003 -1.339995,-0.96 -2.3,-0.96 -0.973338,0 -1.746664,0.319997 -2.32,0.96 -0.573336,0.640003 -0.86,1.439995 -0.86,2.4 0,0.960005 0.286664,1.759997 0.86,2.4 0.573336,0.640003 1.346662,0.96 2.32,0.96 z M 72.12,18 C 72.02667,18 71.953334,17.97333 71.9,17.92 71.84667,17.86667 71.82,17.793334 71.82,17.7 V 9.08 c 0,-0.1733342 0.08,-0.2866664 0.24,-0.34 L 73.2,8.32 c 0.02667,-0.013333 0.06667,-0.02 0.12,-0.02 0.146667,0 0.22,0.086666 0.22,0.26 v 1.02 c 0.320002,-0.466669 0.719998,-0.8199988 1.2,-1.06 0.480002,-0.2400012 0.993331,-0.36 1.54,-0.36 0.560003,0 1.079998,0.1366653 1.56,0.41 0.480002,0.2733347 0.866665,0.683331 1.16,1.23 0.373335,-0.58667 0.829997,-1.0066654 1.37,-1.26 0.540003,-0.2533346 1.10333,-0.38 1.69,-0.38 1.093339,0 1.946664,0.3399966 2.56,1.02 0.613336,0.680003 0.92,1.70666 0.92,3.08 v 5.44 c 0,0.09333 -0.02667,0.166666 -0.08,0.22 C 85.40667,17.97333 85.333334,18 85.24,18 H 84.12 C 84.02667,18 83.953334,17.97333 83.9,17.92 83.84667,17.86667 83.82,17.793334 83.82,17.7 v -5.22 c 0,-0.840004 -0.186665,-1.486664 -0.56,-1.94 -0.373335,-0.453336 -0.899997,-0.68 -1.58,-0.68 -0.680003,0 -1.206665,0.226664 -1.58,0.68 -0.373335,0.453336 -0.56,1.099996 -0.56,1.94 v 5.22 c 0,0.09333 -0.02667,0.166666 -0.08,0.22 C 79.40667,17.97333 79.333334,18 79.24,18 H 78.12 C 78.02667,18 77.953334,17.97333 77.9,17.92 77.84667,17.86667 77.82,17.793334 77.82,17.7 v -5.22 c 0,-0.840004 -0.186665,-1.486664 -0.56,-1.94 -0.373335,-0.453336 -0.899997,-0.68 -1.58,-0.68 -0.680003,0 -1.206665,0.226664 -1.58,0.68 -0.373335,0.453336 -0.56,1.099996 -0.56,1.94 v 5.22 c 0,0.09333 -0.02667,0.166666 -0.08,0.22 C 73.40667,17.97333 73.333334,18 73.24,18 Z m 15.96,0 C 87.98667,18 87.913334,17.97333 87.86,17.92 87.80667,17.86667 87.78,17.793334 87.78,17.7 V 9.08 c 0,-0.1733342 0.08,-0.2866664 0.24,-0.34 l 1.14,-0.42 c 0.02667,-0.013333 0.06667,-0.02 0.12,-0.02 0.146667,0 0.22,0.086666 0.22,0.26 v 1.02 c 0.346668,-0.506669 0.776664,-0.8699989 1.29,-1.09 0.513336,-0.2200011 1.056664,-0.33 1.63,-0.33 0.733337,0 1.39333,0.1633317 1.98,0.49 0.58667,0.3266683 1.05,0.81333 1.39,1.46 0.34,0.64667 0.51,1.429995 0.51,2.35 v 5.24 c 0,0.09333 -0.0267,0.166666 -0.08,0.22 C 96.1667,17.97333 96.09333,18 96,18 h -1.12 c -0.0933,0 -0.16667,-0.02667 -0.22,-0.08 -0.0533,-0.05333 -0.08,-0.126666 -0.08,-0.22 v -5.18 c 0,-0.840004 -0.22333,-1.493331 -0.67,-1.96 -0.446669,-0.466669 -1.049996,-0.7 -1.81,-0.7 -0.773337,0 -1.399998,0.236664 -1.88,0.71 -0.480002,0.473336 -0.72,1.123329 -0.72,1.95 v 5.18 c 0,0.09333 -0.02667,0.166666 -0.08,0.22 C 89.36667,17.97333 89.293334,18 89.2,18 Z M 98.88,7.3 c -0.0267,0.013333 -0.0667,0.02 -0.12,0.02 -0.14667,0 -0.22,-0.086666 -0.22,-0.26 V 5.64 c 0,-0.1733342 0.08,-0.2866664 0.24,-0.34 l 1.26,-0.48 c 0.0267,-0.013333 0.0667,-0.02 0.12,-0.02 0.14667,0 0.22,0.086666 0.22,0.26 v 1.48 c 0,0.1600008 -0.08,0.273333 -0.24,0.34 z M 98.9,18 C 98.8067,18 98.73333,17.97333 98.68,17.92 98.6267,17.86667 98.6,17.793334 98.6,17.7 V 9.08 c 0,-0.1733342 0.08,-0.2866664 0.24,-0.34 l 1.14,-0.42 c 0.0267,-0.013333 0.0667,-0.02 0.12,-0.02 0.14667,0 0.22,0.086666 0.22,0.26 v 9.14 c 0,0.09333 -0.0267,0.166666 -0.08,0.22 -0.0533,0.05333 -0.12667,0.08 -0.22,0.08 z m 8.36,0.24 c -0.98667,0 -1.84,-0.226664 -2.56,-0.68 -0.72,-0.453336 -1.27333,-1.066663 -1.66,-1.84 -0.38667,-0.773337 -0.58,-1.619995 -0.58,-2.54 0,-0.986672 0.22333,-1.863329 0.67,-2.63 0.44667,-0.76667 1.04333,-1.356665 1.79,-1.77 0.74667,-0.4133354 1.56,-0.62 2.44,-0.62 0.66667,0 1.28333,0.1199988 1.85,0.36 0.56667,0.2400012 1.00333,0.566665 1.31,0.98 V 9.08 c 0,-0.1733342 0.08,-0.2866664 0.24,-0.34 l 1.14,-0.42 c 0.08,-0.026667 0.12667,-0.04 0.14,-0.04 0.13333,0 0.2,0.086666 0.2,0.26 v 9.16 c 0,0.09333 -0.0267,0.166666 -0.08,0.22 -0.0533,0.05333 -0.12667,0.08 -0.22,0.08 h -1.12 c -0.0933,0 -0.16667,-0.02667 -0.22,-0.08 -0.0533,-0.05333 -0.08,-0.126666 -0.08,-0.22 v -0.78 c -0.29334,0.360002 -0.74333,0.669999 -1.35,0.93 -0.60667,0.260001 -1.24333,0.39 -1.91,0.39 z m 0.12,-1.7 c 0.93334,0 1.69333,-0.29333 2.28,-0.88 0.58667,-0.58667 0.88,-1.413328 0.88,-2.48 0,-1.066672 -0.29333,-1.889997 -0.88,-2.47 -0.58667,-0.580003 -1.34666,-0.87 -2.28,-0.87 -0.89334,0 -1.64333,0.29333 -2.25,0.88 -0.60667,0.58667 -0.91,1.406661 -0.91,2.46 0,1.053339 0.30333,1.876664 0.91,2.47 0.60667,0.593336 1.35666,0.89 2.25,0.89 z"
         id="omnia"
         inkscape:connector-curvature="0"
         style="fill:#ffffff" />
      <g
         id="Logo"
         transform="translate(2,3)"
         style="stroke:#ffffff;stroke-width:3;stroke-linecap:round;stroke-linejoin:round">
        <path
           d="M 16.696768,21.098224 C 16.442964,17.230667 17.717369,11.854376 20.391414,7.6310495 24.031921,1.8813152 29.874261,-1.5 37.903226,-1.5 h 1.5 V 0 c 0,15.549886 -8.61806,23.126734 -21.284027,22.498156 l -1.33491,-0.06625 z"
           id="leaf"
           inkscape:connector-curvature="0" />
        <path
           d="m 28.806452,9 c -5.053764,4 -8.591398,8 -10.612904,12 -4.04301,6 -0.505376,18 10.612904,36"
           id="stem"
           inkscape:connector-curvature="0" />
        <path
           d="M 21.225806,42 C 29.817204,48 38.408602,50.125 47,48.375"
           id="root-1"
           inkscape:connector-curvature="0" />
        <path
           d="M 24.258064,49.5 C 18.193548,54.5 12.129032,56 6.0645161,54"
           id="root-2"
           inkscape:connector-curvature="0" />
        <path
           d="M 18.193548,36 C 16.677419,42 12.129032,48 0,49.5"
           id="root-3"
           inkscape:connector-curvature="0" />
      </g>
    </g>
  </g>
</svg>
