{
  "accessors": [
    {
      "bufferView": 2,
      "componentType": 5126,
      "count": 65532,
      "max": [
        8.9814682006835938,
        15.857969284057617,
        12.18751335144043
      ],
      "min": [
        -10.513784408569336,
        -4.6838102340698242,
        -5.5375018119812012
      ],
      "type": "VEC3"
    },
    {
      "bufferView": 2,
      "byteOffset": 786384,
      "componentType": 5126,
      "count": 65532,
      "max": [
        0.99999785423278809,
        0.99999678134918213,
        0.99989777803421021
      ],
      "min": [
        -0.99999463558197021,
        -0.99996113777160645,
        -0.99998748302459717
      ],
      "type": "VEC3"
    },
    {
      "bufferView": 3,
      "componentType": 5126,
      "count": 65532,
      "max": [
        1,
        1,
        1,
        1
      ],
      "min": [
        0.0078431377187371254,
        0.0039215688593685627,
        0,
        1
      ],
      "type": "VEC4"
    },
    {
      "bufferView": 1,
      "componentType": 5126,
      "count": 65532,
      "max": [
        0.99884599447250366,
        0.99972498416900635
      ],
      "min": [
        0.0010160000529140234,
        1.4999999621068127e-05
      ],
      "type": "VEC2"
    },
    {
      "bufferView": 0,
      "componentType": 5125,
      "count": 349683,
      "max": [
        65531
      ],
      "min": [
        0
      ],
      "type": "SCALAR"
    },
    {
      "bufferView": 2,
      "byteOffset": 1572768,
      "componentType": 5126,
      "count": 51696,
      "max": [
        9.2210121154785156,
        15.758796691894531,
        12.149045944213867
      ],
      "min": [
        -10.513784408569336,
        -4.6838102340698242,
        -5.5891900062561035
      ],
      "type": "VEC3"
    },
    {
      "bufferView": 2,
      "byteOffset": 2193120,
      "componentType": 5126,
      "count": 51696,
      "max": [
        1,
        0.9999995231628418,
        0.99993366003036499
      ],
      "min": [
        -0.99999749660491943,
        -1,
        -0.99999654293060303
      ],
      "type": "VEC3"
    },
    {
      "bufferView": 3,
      "byteOffset": 1048512,
      "componentType": 5126,
      "count": 51696,
      "max": [
        0.99607843160629272,
        0.99607843160629272,
        0.99607843160629272,
        1
      ],
      "min": [
        0,
        0,
        0,
        1
      ],
      "type": "VEC4"
    },
    {
      "bufferView": 1,
      "byteOffset": 524256,
      "componentType": 5126,
      "count": 51696,
      "max": [
        0.99981498718261719,
        0.99999701976776123
      ],
      "min": [
        0.0002280000044265762,
        0.00036000000545755029
      ],
      "type": "VEC2"
    },
    {
      "bufferView": 0,
      "byteOffset": 1398732,
      "componentType": 5125,
      "count": 245913,
      "max": [
        51695
      ],
      "min": [
        0
      ],
      "type": "SCALAR"
    }
  ],
  "asset": {
    "extras": {
      "author": "Archéomatique (https://sketchfab.com/archeomatique)",
      "license": "CC-BY-NC-4.0 (http://creativecommons.org/licenses/by-nc/4.0/)",
      "source": "https://sketchfab.com/3d-models/forteresse-royale-de-najac-12-781822d8412642fb8228cc5fb2627a7b",
      "title": "Forteresse Royale de Najac (12)"
    },
    "generator": "Sketchfab-8.78.0",
    "version": "2.0"
  },
  "bufferViews": [
    {
      "buffer": 0,
      "byteLength": 2382384,
      "byteOffset": 0,
      "name": "floatBufferViews",
      "target": 34963
    },
    {
      "buffer": 0,
      "byteLength": 937824,
      "byteOffset": 2382384,
      "byteStride": 8,
      "name": "floatBufferViews",
      "target": 34962
    },
    {
      "buffer": 0,
      "byteLength": 2813472,
      "byteOffset": 3320208,
      "byteStride": 12,
      "name": "floatBufferViews",
      "target": 34962
    },
    {
      "buffer": 0,
      "byteLength": 1875648,
      "byteOffset": 6133680,
      "byteStride": 16,
      "name": "floatBufferViews",
      "target": 34962
    }
  ],
  "buffers": [
    {
      "byteLength": 8009328,
      "uri": "scene.bin"
    }
  ],
  "extensionsUsed": [
    "KHR_materials_unlit"
  ],
  "images": [
    {
      "uri": "textures/najac_chateau_1_baseColor.jpeg"
    }
  ],
  "materials": [
    {
      "doubleSided": true,
      "emissiveFactor": [
        0,
        0,
        0
      ],
      "extensions": {
        "KHR_materials_unlit": {}
      },
      "name": "najac_chateau_1",
      "pbrMetallicRoughness": {
        "baseColorFactor": [
          1,
          1,
          1,
          1
        ],
        "baseColorTexture": {
          "index": 0,
          "texCoord": 0
        },
        "metallicFactor": 0,
        "roughnessFactor": 1
      }
    }
  ],
  "meshes": [
    {
      "primitives": [
        {
          "attributes": {
            "COLOR_0": 2,
            "NORMAL": 1,
            "POSITION": 0,
            "TEXCOORD_0": 3
          },
          "indices": 4,
          "material": 0,
          "mode": 4
        }
      ]
    },
    {
      "primitives": [
        {
          "attributes": {
            "COLOR_0": 7,
            "NORMAL": 6,
            "POSITION": 5,
            "TEXCOORD_0": 8
          },
          "indices": 9,
          "material": 0,
          "mode": 4
        }
      ]
    }
  ],
  "nodes": [
    {
      "children": [
        1
      ],
      "name": "RootNode (gltf orientation matrix)",
      "rotation": [
        -0.70710678118654746,
        -0,
        -0,
        0.70710678118654757
      ]
    },
    {
      "children": [
        2
      ],
      "matrix": [
        0.55538592995738512,
        1.2043864748576016e-19,
        -0.0066056512645251142,
        0,
        0.0012622538511961046,
        0.54519046427719786,
        0.10612701287287685,
        0,
        0.0064839295781793371,
        -0.10613451136451246,
        0.54515189587651136,
        0,
        -0.051256399601697922,
        0.73337548971176147,
        -1.014204740524292,
        1
      ],
      "name": "RootNode (model correction matrix)"
    },
    {
      "children": [
        3,
        4
      ],
      "name": "najac_chateau_1.obj.cleaner.materialmerger.gles"
    },
    {
      "mesh": 0,
      "name": ""
    },
    {
      "mesh": 1,
      "name": ""
    }
  ],
  "samplers": [
    {
      "magFilter": 9729,
      "minFilter": 9987,
      "wrapS": 10497,
      "wrapT": 10497
    }
  ],
  "scene": 0,
  "scenes": [
    {
      "name": "OSG_Scene",
      "nodes": [
        0
      ]
    }
  ],
  "textures": [
    {
      "sampler": 0,
      "source": 0
    }
  ]
}

