{
  "accessors": [
    {
      "bufferView": 2,
      "componentType": 5126,
      "count": 8440,
      "max": [
        2.5234184265136719,
        16.068609237670898,
        4.3153128623962402
      ],
      "min": [
        -5.037083625793457,
        -0.18513870239257812,
        -4.0723018646240234
      ],
      "type": "VEC3"
    },
    {
      "bufferView": 2,
      "byteOffset": 101280,
      "componentType": 5126,
      "count": 8440,
      "max": [
        1,
        1,
        1
      ],
      "min": [
        -1,
        -1,
        -1
      ],
      "type": "VEC3"
    },
    {
      "bufferView": 3,
      "componentType": 5126,
      "count": 8440,
      "max": [
        1,
        1,
        1,
        1
      ],
      "min": [
        -1,
        -1,
        -1,
        -1
      ],
      "type": "VEC4"
    },
    {
      "bufferView": 1,
      "componentType": 5126,
      "count": 8440,
      "max": [
        2.0226280689239502,
        1.0015577077865601
      ],
      "min": [
        -0.001660466194152832,
        -0.005190528929233551
      ],
      "type": "VEC2"
    },
    {
      "bufferView": 0,
      "componentType": 5125,
      "count": 12537,
      "max": [
        8439
      ],
      "min": [
        0
      ],
      "type": "SCALAR"
    },
    {
      "bufferView": 4,
      "componentType": 5126,
      "count": 1,
      "max": [
        0
      ],
      "min": [
        0
      ],
      "type": "SCALAR"
    },
    {
      "bufferView": 5,
      "componentType": 5126,
      "count": 1,
      "max": [
        6.6579026736235392e-08,
        0,
        0,
        1
      ],
      "min": [
        6.6579026736235392e-08,
        0,
        0,
        1
      ],
      "type": "VEC4"
    }
  ],
  "animations": [
    {
      "channels": [
        {
          "sampler": 0,
          "target": {
            "node": 5,
            "path": "rotation"
          }
        }
      ],
      "name": "Take 001",
      "samplers": [
        {
          "input": 5,
          "interpolation": "LINEAR",
          "output": 6
        }
      ]
    }
  ],
  "asset": {
    "extras": {
      "author": "Giovanni E (https://sketchfab.com/klikodeclown)",
      "license": "CC-BY-4.0 (http://creativecommons.org/licenses/by/4.0/)",
      "source": "https://sketchfab.com/models/cc5ea0f68312437c83bb5a258e4563d8",
      "title": "Fire lookout tower"
    },
    "generator": "Sketchfab-3.20.5",
    "version": "2.0"
  },
  "bufferViews": [
    {
      "buffer": 0,
      "byteLength": 50148,
      "byteOffset": 0,
      "name": "floatBufferViews",
      "target": 34963
    },
    {
      "buffer": 0,
      "byteLength": 67520,
      "byteOffset": 50148,
      "byteStride": 8,
      "name": "floatBufferViews",
      "target": 34962
    },
    {
      "buffer": 0,
      "byteLength": 202560,
      "byteOffset": 117668,
      "byteStride": 12,
      "name": "floatBufferViews",
      "target": 34962
    },
    {
      "buffer": 0,
      "byteLength": 135040,
      "byteOffset": 320228,
      "byteStride": 16,
      "name": "floatBufferViews",
      "target": 34962
    },
    {
      "buffer": 0,
      "byteLength": 4,
      "byteOffset": 455268,
      "name": "floatBufferViews"
    },
    {
      "buffer": 0,
      "byteLength": 16,
      "byteOffset": 455272,
      "byteStride": 16,
      "name": "floatBufferViews"
    }
  ],
  "buffers": [
    {
      "byteLength": 455288,
      "uri": "scene.bin"
    }
  ],
  "images": [
    {
      "uri": "textures/Material_654_normal.png"
    },
    {
      "uri": "textures/Material_654_baseColor.png"
    }
  ],
  "materials": [
    {
      "doubleSided": true,
      "emissiveFactor": [
        0,
        0,
        0
      ],
      "name": "Material_654",
      "normalTexture": {
        "index": 0,
        "scale": 1,
        "texCoord": 0
      },
      "pbrMetallicRoughness": {
        "baseColorFactor": [
          1,
          1,
          1,
          1
        ],
        "baseColorTexture": {
          "index": 1,
          "texCoord": 0
        },
        "metallicFactor": 0,
        "roughnessFactor": 0.89297135959999996
      }
    }
  ],
  "meshes": [
    {
      "name": "WIPfirewatch:polySurface34_Material #654_0",
      "primitives": [
        {
          "attributes": {
            "NORMAL": 1,
            "POSITION": 0,
            "TANGENT": 2,
            "TEXCOORD_0": 3
          },
          "indices": 4,
          "material": 0,
          "mode": 4
        }
      ]
    }
  ],
  "nodes": [
    {
      "children": [
        1
      ],
      "name": "RootNode (gltf orientation matrix)",
      "rotation": [
        -0.70710678118654746,
        -0,
        -0,
        0.70710678118654757
      ]
    },
    {
      "children": [
        2
      ],
      "name": "RootNode (model correction matrix)"
    },
    {
      "children": [
        3
      ],
      "matrix": [
        1,
        0,
        0,
        0,
        0,
        0,
        1,
        0,
        0,
        -1,
        0,
        0,
        0,
        0,
        0,
        1
      ],
      "name": "149225e58d42404fa86c5604b74f1bd8.fbx"
    },
    {
      "children": [
        4
      ],
      "name": ""
    },
    {
      "children": [
        5
      ],
      "name": "RootNode"
    },
    {
      "children": [
        6
      ],
      "name": "WIPfirewatch:polySurface34",
      "rotation": [
        8.1460342471473268e-08,
        0,
        0,
        1
      ],
      "scale": [
        13.258224487304688,
        13.258224487304688,
        13.258224487304688
      ],
      "translation": [
        -2.4212284088134766,
        105.44209289550781,
        -1.9055137634277344
      ]
    },
    {
      "children": [
        7
      ],
      "matrix": [
        1,
        0,
        -0,
        0,
        0,
        1,
        0,
        0,
        0,
        0,
        1,
        0,
        1.2568325996398926,
        -7.9417352676391602,
        -0.1215054988861084,
        1
      ],
      "name": ""
    },
    {
      "mesh": 0,
      "name": "WIPfirewatch:polySurface34_Material #654_0"
    }
  ],
  "samplers": [
    {
      "magFilter": 9729,
      "minFilter": 9987,
      "wrapS": 10497,
      "wrapT": 10497
    }
  ],
  "scene": 0,
  "scenes": [
    {
      "name": "OSG_Scene",
      "nodes": [
        0
      ]
    }
  ],
  "textures": [
    {
      "sampler": 0,
      "source": 0
    },
    {
      "sampler": 0,
      "source": 1
    }
  ]
}

