{
    "asset" : {
        "generator" : "Khronos glTF Blender I/O v1.2.75",
        "version" : "2.0"
    },
    "scene" : 0,
    "scenes" : [
        {
            "name" : "Scene",
            "nodes" : [
                3
            ]
        }
    ],
    "nodes" : [
        {
            "mesh" : 0,
            "name" : "Banana Peel_02 - Default_0.001",
            "scale" : [
                0.0016716517275199294,
                0.0016716517275199294,
                0.0016716517275199294
            ],
            "translation" : [
                -48.097320556640625,
                -2.038424015045166,
                25.36515235900879
            ]
        },
        {
            "mesh" : 1,
            "name" : "Banana Peel_03 - Default_0.001",
            "scale" : [
                0.0016716517275199294,
                0.0016716517275199294,
                0.0016716517275199294
            ],
            "translation" : [
                -48.097320556640625,
                -2.038424015045166,
                25.36515235900879
            ]
        },
        {
            "mesh" : 2,
            "name" : "Banana Peel_07 - Default_0.001",
            "scale" : [
                0.0016716517275199294,
                0.0016716517275199294,
                0.0016716517275199294
            ],
            "translation" : [
                -48.097320556640625,
                -2.038424015045166,
                25.36515235900879
            ]
        },
        {
            "children" : [
                0,
                1,
                2
            ],
            "name" : "Banana Peel",
            "rotation" : [
                -0.7071068286895752,
                0,
                0,
                0.7071068286895752
            ],
            "translation" : [
                39.97343444824219,
                -25.00634002685547,
                -0.016741368919610977
            ]
        }
    ],
    "animations" : [
        {
            "channels" : [
                {
                    "sampler" : 0,
                    "target" : {
                        "node" : 0,
                        "path" : "translation"
                    }
                },
                {
                    "sampler" : 1,
                    "target" : {
                        "node" : 0,
                        "path" : "rotation"
                    }
                },
                {
                    "sampler" : 2,
                    "target" : {
                        "node" : 0,
                        "path" : "scale"
                    }
                }
            ],
            "name" : "Banana Peel_02 - Default_0.001Action",
            "samplers" : [
                {
                    "input" : 12,
                    "interpolation" : "STEP",
                    "output" : 13
                },
                {
                    "input" : 12,
                    "interpolation" : "STEP",
                    "output" : 14
                },
                {
                    "input" : 12,
                    "interpolation" : "STEP",
                    "output" : 15
                }
            ]
        },
        {
            "channels" : [
                {
                    "sampler" : 0,
                    "target" : {
                        "node" : 2,
                        "path" : "translation"
                    }
                },
                {
                    "sampler" : 1,
                    "target" : {
                        "node" : 2,
                        "path" : "rotation"
                    }
                },
                {
                    "sampler" : 2,
                    "target" : {
                        "node" : 2,
                        "path" : "scale"
                    }
                }
            ],
            "name" : "Banana Peel_07 - Default_0.001Action",
            "samplers" : [
                {
                    "input" : 12,
                    "interpolation" : "STEP",
                    "output" : 16
                },
                {
                    "input" : 12,
                    "interpolation" : "STEP",
                    "output" : 17
                },
                {
                    "input" : 12,
                    "interpolation" : "STEP",
                    "output" : 18
                }
            ]
        },
        {
            "channels" : [
                {
                    "sampler" : 0,
                    "target" : {
                        "node" : 1,
                        "path" : "translation"
                    }
                },
                {
                    "sampler" : 1,
                    "target" : {
                        "node" : 1,
                        "path" : "rotation"
                    }
                },
                {
                    "sampler" : 2,
                    "target" : {
                        "node" : 1,
                        "path" : "scale"
                    }
                }
            ],
            "name" : "Banana Peel_03 - Default_0.001Action",
            "samplers" : [
                {
                    "input" : 12,
                    "interpolation" : "STEP",
                    "output" : 19
                },
                {
                    "input" : 12,
                    "interpolation" : "STEP",
                    "output" : 20
                },
                {
                    "input" : 12,
                    "interpolation" : "STEP",
                    "output" : 21
                }
            ]
        }
    ],
    "materials" : [
        {
            "doubleSided" : true,
            "emissiveFactor" : [
                0,
                0,
                0
            ],
            "name" : "02_-_Default.001",
            "pbrMetallicRoughness" : {
                "baseColorFactor" : [
                    0.8666669726371765,
                    0.8666669726371765,
                    0.062745101749897,
                    1
                ],
                "metallicFactor" : 0.12305441498756409,
                "roughnessFactor" : 0.8648243546485901
            }
        },
        {
            "doubleSided" : true,
            "emissiveFactor" : [
                0,
                0,
                0
            ],
            "name" : "03_-_Default.001",
            "pbrMetallicRoughness" : {
                "baseColorFactor" : [
                    0.20392200350761414,
                    0.09019610285758972,
                    0,
                    1
                ],
                "metallicFactor" : 1,
                "roughnessFactor" : 0.8929713368415833
            }
        },
        {
            "doubleSided" : true,
            "emissiveFactor" : [
                0,
                0,
                0
            ],
            "name" : "07_-_Default.001",
            "pbrMetallicRoughness" : {
                "baseColorFactor" : [
                    0.23921599984169006,
                    0.050980400294065475,
                    0.047058798372745514,
                    1
                ],
                "metallicFactor" : 0.8200241327285767,
                "roughnessFactor" : 0.25876376032829285
            }
        }
    ],
    "meshes" : [
        {
            "name" : "Banana Peel_02 - Default_0.001",
            "primitives" : [
                {
                    "attributes" : {
                        "POSITION" : 0,
                        "NORMAL" : 1,
                        "TEXCOORD_0" : 2
                    },
                    "indices" : 3,
                    "material" : 0
                }
            ]
        },
        {
            "name" : "Banana Peel_03 - Default_0.001",
            "primitives" : [
                {
                    "attributes" : {
                        "POSITION" : 4,
                        "NORMAL" : 5,
                        "TEXCOORD_0" : 6
                    },
                    "indices" : 7,
                    "material" : 1
                }
            ]
        },
        {
            "name" : "Banana Peel_07 - Default_0.001",
            "primitives" : [
                {
                    "attributes" : {
                        "POSITION" : 8,
                        "NORMAL" : 9,
                        "TEXCOORD_0" : 10
                    },
                    "indices" : 11,
                    "material" : 2
                }
            ]
        }
    ],
    "accessors" : [
        {
            "bufferView" : 0,
            "componentType" : 5126,
            "count" : 2148,
            "max" : [
                187.00857543945312,
                294.5700988769531,
                341.36322021484375
            ],
            "min" : [
                -298.2539367675781,
                -290.5645446777344,
                -160.154296875
            ],
            "type" : "VEC3"
        },
        {
            "bufferView" : 1,
            "componentType" : 5126,
            "count" : 2148,
            "type" : "VEC3"
        },
        {
            "bufferView" : 2,
            "componentType" : 5126,
            "count" : 2148,
            "type" : "VEC2"
        },
        {
            "bufferView" : 3,
            "componentType" : 5123,
            "count" : 8670,
            "type" : "SCALAR"
        },
        {
            "bufferView" : 4,
            "componentType" : 5126,
            "count" : 974,
            "max" : [
                197.7848358154297,
                313.43878173828125,
                357.6590270996094
            ],
            "min" : [
                -319.426513671875,
                -309.4464111328125,
                -145.9607696533203
            ],
            "type" : "VEC3"
        },
        {
            "bufferView" : 5,
            "componentType" : 5126,
            "count" : 974,
            "type" : "VEC3"
        },
        {
            "bufferView" : 6,
            "componentType" : 5126,
            "count" : 974,
            "type" : "VEC2"
        },
        {
            "bufferView" : 7,
            "componentType" : 5123,
            "count" : 1674,
            "type" : "SCALAR"
        },
        {
            "bufferView" : 8,
            "componentType" : 5126,
            "count" : 1118,
            "max" : [
                11.820412635803223,
                -49.14316177368164,
                102.94475555419922
            ],
            "min" : [
                -62.43600082397461,
                -80.80215454101562,
                50.017372131347656
            ],
            "type" : "VEC3"
        },
        {
            "bufferView" : 9,
            "componentType" : 5126,
            "count" : 1118,
            "type" : "VEC3"
        },
        {
            "bufferView" : 10,
            "componentType" : 5126,
            "count" : 1118,
            "type" : "VEC2"
        },
        {
            "bufferView" : 11,
            "componentType" : 5123,
            "count" : 5760,
            "type" : "SCALAR"
        },
        {
            "bufferView" : 12,
            "componentType" : 5126,
            "count" : 1,
            "max" : [
                0
            ],
            "min" : [
                0
            ],
            "type" : "SCALAR"
        },
        {
            "bufferView" : 13,
            "componentType" : 5126,
            "count" : 1,
            "type" : "VEC3"
        },
        {
            "bufferView" : 14,
            "componentType" : 5126,
            "count" : 1,
            "type" : "VEC4"
        },
        {
            "bufferView" : 15,
            "componentType" : 5126,
            "count" : 1,
            "type" : "VEC3"
        },
        {
            "bufferView" : 16,
            "componentType" : 5126,
            "count" : 1,
            "type" : "VEC3"
        },
        {
            "bufferView" : 17,
            "componentType" : 5126,
            "count" : 1,
            "type" : "VEC4"
        },
        {
            "bufferView" : 18,
            "componentType" : 5126,
            "count" : 1,
            "type" : "VEC3"
        },
        {
            "bufferView" : 19,
            "componentType" : 5126,
            "count" : 1,
            "type" : "VEC3"
        },
        {
            "bufferView" : 20,
            "componentType" : 5126,
            "count" : 1,
            "type" : "VEC4"
        },
        {
            "bufferView" : 21,
            "componentType" : 5126,
            "count" : 1,
            "type" : "VEC3"
        }
    ],
    "bufferViews" : [
        {
            "buffer" : 0,
            "byteLength" : 25776,
            "byteOffset" : 0
        },
        {
            "buffer" : 0,
            "byteLength" : 25776,
            "byteOffset" : 25776
        },
        {
            "buffer" : 0,
            "byteLength" : 17184,
            "byteOffset" : 51552
        },
        {
            "buffer" : 0,
            "byteLength" : 17340,
            "byteOffset" : 68736
        },
        {
            "buffer" : 0,
            "byteLength" : 11688,
            "byteOffset" : 86076
        },
        {
            "buffer" : 0,
            "byteLength" : 11688,
            "byteOffset" : 97764
        },
        {
            "buffer" : 0,
            "byteLength" : 7792,
            "byteOffset" : 109452
        },
        {
            "buffer" : 0,
            "byteLength" : 3348,
            "byteOffset" : 117244
        },
        {
            "buffer" : 0,
            "byteLength" : 13416,
            "byteOffset" : 120592
        },
        {
            "buffer" : 0,
            "byteLength" : 13416,
            "byteOffset" : 134008
        },
        {
            "buffer" : 0,
            "byteLength" : 8944,
            "byteOffset" : 147424
        },
        {
            "buffer" : 0,
            "byteLength" : 11520,
            "byteOffset" : 156368
        },
        {
            "buffer" : 0,
            "byteLength" : 4,
            "byteOffset" : 167888
        },
        {
            "buffer" : 0,
            "byteLength" : 12,
            "byteOffset" : 167892
        },
        {
            "buffer" : 0,
            "byteLength" : 16,
            "byteOffset" : 167904
        },
        {
            "buffer" : 0,
            "byteLength" : 12,
            "byteOffset" : 167920
        },
        {
            "buffer" : 0,
            "byteLength" : 12,
            "byteOffset" : 167932
        },
        {
            "buffer" : 0,
            "byteLength" : 16,
            "byteOffset" : 167944
        },
        {
            "buffer" : 0,
            "byteLength" : 12,
            "byteOffset" : 167960
        },
        {
            "buffer" : 0,
            "byteLength" : 12,
            "byteOffset" : 167972
        },
        {
            "buffer" : 0,
            "byteLength" : 16,
            "byteOffset" : 167984
        },
        {
            "buffer" : 0,
            "byteLength" : 12,
            "byteOffset" : 168000
        }
    ],
    "buffers" : [
        {
            "byteLength" : 168012,
            "uri" : "scene.bin"
        }
    ]
}
