{
    "asset" : {
        "generator" : "Khronos glTF Blender I/O v1.2.75",
        "version" : "2.0"
    },
    "scene" : 0,
    "scenes" : [
        {
            "name" : "Scene",
            "nodes" : [
                10,
                11,
                17
            ]
        }
    ],
    "nodes" : [
        {
            "mesh" : 0,
            "name" : "Eiffel-Tower_0.008",
            "rotation" : [
                -0.7101258635520935,
                0,
                0,
                0.7040747404098511
            ]
        },
        {
            "mesh" : 1,
            "name" : "Eiffel-Tower_0.009",
            "rotation" : [
                -0.7101258635520935,
                0,
                0,
                0.7040747404098511
            ]
        },
        {
            "mesh" : 2,
            "name" : "Eiffel-Tower_0.010",
            "rotation" : [
                -0.7101258635520935,
                0,
                0,
                0.7040747404098511
            ]
        },
        {
            "mesh" : 3,
            "name" : "Eiffel-Tower_0.011",
            "rotation" : [
                -0.7101258635520935,
                0,
                0,
                0.7040747404098511
            ]
        },
        {
            "mesh" : 4,
            "name" : "Eiffel-Tower_0.012",
            "rotation" : [
                -0.7101258635520935,
                0,
                0,
                0.7040747404098511
            ]
        },
        {
            "mesh" : 5,
            "name" : "Eiffel-Tower_0.013",
            "rotation" : [
                -0.7101258635520935,
                0,
                0,
                0.7040747404098511
            ]
        },
        {
            "mesh" : 6,
            "name" : "Eiffel-Tower_0.014",
            "rotation" : [
                -0.7101258635520935,
                0,
                0,
                0.7040747404098511
            ]
        },
        {
            "mesh" : 7,
            "name" : "Eiffel-Tower_0.015",
            "rotation" : [
                -0.7101258635520935,
                0,
                0,
                0.7040747404098511
            ]
        },
        {
            "mesh" : 8,
            "name" : "Eiffel-Tower_1.001",
            "rotation" : [
                -0.7101258635520935,
                0,
                0,
                0.7040747404098511
            ]
        },
        {
            "mesh" : 9,
            "name" : "Eiffel-Tower_2.001",
            "rotation" : [
                -0.7101258635520935,
                0,
                0,
                0.7040747404098511
            ]
        },
        {
            "children" : [
                0,
                1,
                2,
                3,
                4,
                5,
                6,
                7,
                8,
                9
            ],
            "name" : "Eiffel-Tower.001",
            "scale" : [
                30,
                30,
                30
            ],
            "translation" : [
                -0.12260114401578903,
                -0.0005553846131078899,
                8.392694473266602
            ]
        },
        {
            "name" : "Banana Peel",
            "rotation" : [
                -0.7071068286895752,
                0,
                0,
                0.7071068286895752
            ],
            "translation" : [
                39.97343444824219,
                -25.00634002685547,
                -0.016741368919610977
            ]
        },
        {
            "name" : "DiscoBall"
        },
        {
            "children" : [
                12
            ],
            "name" : "RootNode.003"
        },
        {
            "children" : [
                13
            ],
            "name" : "Node_3"
        },
        {
            "children" : [
                14
            ],
            "name" : "afbef698da0848eda397b08d9734c84f.fbx",
            "rotation" : [
                0.7071068286895752,
                0,
                0,
                0.7071068286895752
            ]
        },
        {
            "children" : [
                15
            ],
            "name" : "RootNode (model correction matrix).007"
        },
        {
            "children" : [
                16
            ],
            "name" : "RootNode (gltf orientation matrix).007",
            "rotation" : [
                -0.7071067690849304,
                0,
                0,
                0.7071067690849304
            ]
        }
    ],
    "animations" : [
        {
            "channels" : [
                {
                    "sampler" : 0,
                    "target" : {
                        "node" : 10,
                        "path" : "translation"
                    }
                },
                {
                    "sampler" : 1,
                    "target" : {
                        "node" : 10,
                        "path" : "rotation"
                    }
                },
                {
                    "sampler" : 2,
                    "target" : {
                        "node" : 10,
                        "path" : "scale"
                    }
                }
            ],
            "name" : "Eiffel-Tower.001Action.003",
            "samplers" : [
                {
                    "input" : 30,
                    "interpolation" : "STEP",
                    "output" : 31
                },
                {
                    "input" : 30,
                    "interpolation" : "STEP",
                    "output" : 32
                },
                {
                    "input" : 30,
                    "interpolation" : "STEP",
                    "output" : 33
                }
            ]
        },
        {
            "channels" : [
                {
                    "sampler" : 0,
                    "target" : {
                        "node" : 12,
                        "path" : "rotation"
                    }
                }
            ],
            "name" : "Take 001",
            "samplers" : [
                {
                    "input" : 34,
                    "interpolation" : "LINEAR",
                    "output" : 35
                }
            ]
        }
    ],
    "materials" : [
        {
            "emissiveFactor" : [
                0,
                0,
                0
            ],
            "name" : "Main.005",
            "pbrMetallicRoughness" : {
                "baseColorFactor" : [
                    1,
                    1,
                    1,
                    1
                ],
                "metallicFactor" : 1,
                "roughnessFactor" : 1
            }
        },
        {
            "emissiveFactor" : [
                0,
                0,
                0
            ],
            "name" : "Material.011",
            "pbrMetallicRoughness" : {
                "baseColorFactor" : [
                    1,
                    1,
                    1,
                    1
                ],
                "metallicFactor" : 1,
                "roughnessFactor" : 1
            }
        },
        {
            "alphaMode" : "BLEND",
            "doubleSided" : true,
            "emissiveFactor" : [
                0,
                0,
                0
            ],
            "name" : "Material.012",
            "pbrMetallicRoughness" : {
                "baseColorFactor" : [
                    1,
                    1,
                    1,
                    1
                ],
                "metallicFactor" : 1,
                "roughnessFactor" : 1
            }
        }
    ],
    "meshes" : [
        {
            "name" : "Eiffel-Tower_0.040",
            "primitives" : [
                {
                    "attributes" : {
                        "POSITION" : 0,
                        "NORMAL" : 1
                    },
                    "indices" : 2,
                    "material" : 0
                }
            ]
        },
        {
            "name" : "Eiffel-Tower_0.041",
            "primitives" : [
                {
                    "attributes" : {
                        "POSITION" : 3,
                        "NORMAL" : 4
                    },
                    "indices" : 5,
                    "material" : 0
                }
            ]
        },
        {
            "name" : "Eiffel-Tower_0.042",
            "primitives" : [
                {
                    "attributes" : {
                        "POSITION" : 6,
                        "NORMAL" : 7
                    },
                    "indices" : 8,
                    "material" : 0
                }
            ]
        },
        {
            "name" : "Eiffel-Tower_0.043",
            "primitives" : [
                {
                    "attributes" : {
                        "POSITION" : 9,
                        "NORMAL" : 10
                    },
                    "indices" : 11,
                    "material" : 0
                }
            ]
        },
        {
            "name" : "Eiffel-Tower_0.044",
            "primitives" : [
                {
                    "attributes" : {
                        "POSITION" : 12,
                        "NORMAL" : 13
                    },
                    "indices" : 14,
                    "material" : 0
                }
            ]
        },
        {
            "name" : "Eiffel-Tower_0.045",
            "primitives" : [
                {
                    "attributes" : {
                        "POSITION" : 15,
                        "NORMAL" : 16
                    },
                    "indices" : 17,
                    "material" : 0
                }
            ]
        },
        {
            "name" : "Eiffel-Tower_0.046",
            "primitives" : [
                {
                    "attributes" : {
                        "POSITION" : 18,
                        "NORMAL" : 19
                    },
                    "indices" : 20,
                    "material" : 0
                }
            ]
        },
        {
            "name" : "Eiffel-Tower_0.047",
            "primitives" : [
                {
                    "attributes" : {
                        "POSITION" : 21,
                        "NORMAL" : 22
                    },
                    "indices" : 23,
                    "material" : 0
                }
            ]
        },
        {
            "name" : "Eiffel-Tower_1.005",
            "primitives" : [
                {
                    "attributes" : {
                        "POSITION" : 24,
                        "NORMAL" : 25
                    },
                    "indices" : 26,
                    "material" : 1
                }
            ]
        },
        {
            "name" : "Eiffel-Tower_2.005",
            "primitives" : [
                {
                    "attributes" : {
                        "POSITION" : 27,
                        "NORMAL" : 28
                    },
                    "indices" : 29,
                    "material" : 2
                }
            ]
        }
    ],
    "accessors" : [
        {
            "bufferView" : 0,
            "componentType" : 5126,
            "count" : 73507,
            "max" : [
                3.065229892730713,
                3.0164999961853027,
                15.632369995117188
            ],
            "min" : [
                -3.065229892730713,
                -3.0164999961853027,
                -0.02718999981880188
            ],
            "type" : "VEC3"
        },
        {
            "bufferView" : 1,
            "componentType" : 5126,
            "count" : 73507,
            "type" : "VEC3"
        },
        {
            "bufferView" : 2,
            "componentType" : 5125,
            "count" : 255843,
            "type" : "SCALAR"
        },
        {
            "bufferView" : 3,
            "componentType" : 5126,
            "count" : 67451,
            "max" : [
                3.065229892730713,
                2.0651400089263916,
                15.264969825744629
            ],
            "min" : [
                -3.065229892730713,
                -2.975559949874878,
                -0.02718999981880188
            ],
            "type" : "VEC3"
        },
        {
            "bufferView" : 4,
            "componentType" : 5126,
            "count" : 67451,
            "type" : "VEC3"
        },
        {
            "bufferView" : 5,
            "componentType" : 5125,
            "count" : 227391,
            "type" : "SCALAR"
        },
        {
            "bufferView" : 6,
            "componentType" : 5126,
            "count" : 100398,
            "max" : [
                2.9969499111175537,
                2.985340118408203,
                14.947250366210938
            ],
            "min" : [
                -2.9961800575256348,
                -2.985340118408203,
                -0.002749999985098839
            ],
            "type" : "VEC3"
        },
        {
            "bufferView" : 7,
            "componentType" : 5126,
            "count" : 100398,
            "type" : "VEC3"
        },
        {
            "bufferView" : 8,
            "componentType" : 5125,
            "count" : 195414,
            "type" : "SCALAR"
        },
        {
            "bufferView" : 9,
            "componentType" : 5126,
            "count" : 82235,
            "max" : [
                3.065229892730713,
                3.0164999961853027,
                15.630240440368652
            ],
            "min" : [
                -3.065229892730713,
                -3.0164999961853027,
                -0.02718999981880188
            ],
            "type" : "VEC3"
        },
        {
            "bufferView" : 10,
            "componentType" : 5126,
            "count" : 82235,
            "type" : "VEC3"
        },
        {
            "bufferView" : 11,
            "componentType" : 5125,
            "count" : 153702,
            "type" : "SCALAR"
        },
        {
            "bufferView" : 12,
            "componentType" : 5126,
            "count" : 76825,
            "max" : [
                2.985340118408203,
                2.154510021209717,
                14.947250366210938
            ],
            "min" : [
                -2.1545000076293945,
                -2.985340118408203,
                -0.002749999985098839
            ],
            "type" : "VEC3"
        },
        {
            "bufferView" : 13,
            "componentType" : 5126,
            "count" : 76825,
            "type" : "VEC3"
        },
        {
            "bufferView" : 14,
            "componentType" : 5125,
            "count" : 139419,
            "type" : "SCALAR"
        },
        {
            "bufferView" : 15,
            "componentType" : 5126,
            "count" : 75458,
            "max" : [
                2.1545000076293945,
                2.985340118408203,
                14.732439994812012
            ],
            "min" : [
                -2.985340118408203,
                -2.154510021209717,
                -0.002749999985098839
            ],
            "type" : "VEC3"
        },
        {
            "bufferView" : 16,
            "componentType" : 5126,
            "count" : 75458,
            "type" : "VEC3"
        },
        {
            "bufferView" : 17,
            "componentType" : 5125,
            "count" : 142854,
            "type" : "SCALAR"
        },
        {
            "bufferView" : 18,
            "componentType" : 5126,
            "count" : 67050,
            "max" : [
                2.126569986343384,
                2.126569986343384,
                15.443790435791016
            ],
            "min" : [
                -2.126569986343384,
                -2.126569986343384,
                1.6867300271987915
            ],
            "type" : "VEC3"
        },
        {
            "bufferView" : 19,
            "componentType" : 5126,
            "count" : 67050,
            "type" : "VEC3"
        },
        {
            "bufferView" : 20,
            "componentType" : 5125,
            "count" : 162966,
            "type" : "SCALAR"
        },
        {
            "bufferView" : 21,
            "componentType" : 5126,
            "count" : 45486,
            "max" : [
                2.126569986343384,
                2.126569986343384,
                15.628060340881348
            ],
            "min" : [
                -2.126569986343384,
                -2.126569986343384,
                1.6867300271987915
            ],
            "type" : "VEC3"
        },
        {
            "bufferView" : 22,
            "componentType" : 5126,
            "count" : 45486,
            "type" : "VEC3"
        },
        {
            "bufferView" : 23,
            "componentType" : 5123,
            "count" : 71322,
            "type" : "SCALAR"
        },
        {
            "bufferView" : 24,
            "componentType" : 5126,
            "count" : 1760,
            "max" : [
                3.3619399070739746,
                3.311389923095703,
                4.905980110168457
            ],
            "min" : [
                -3.3619399070739746,
                -3.311389923095703,
                -0.2953999936580658
            ],
            "type" : "VEC3"
        },
        {
            "bufferView" : 25,
            "componentType" : 5126,
            "count" : 1760,
            "type" : "VEC3"
        },
        {
            "bufferView" : 26,
            "componentType" : 5123,
            "count" : 3600,
            "type" : "SCALAR"
        },
        {
            "bufferView" : 27,
            "componentType" : 5126,
            "count" : 5736,
            "max" : [
                1.996899962425232,
                1.997879981994629,
                14.164950370788574
            ],
            "min" : [
                -1.9681099653244019,
                -1.9856599569320679,
                2.561769962310791
            ],
            "type" : "VEC3"
        },
        {
            "bufferView" : 28,
            "componentType" : 5126,
            "count" : 5736,
            "type" : "VEC3"
        },
        {
            "bufferView" : 29,
            "componentType" : 5123,
            "count" : 7512,
            "type" : "SCALAR"
        },
        {
            "bufferView" : 30,
            "componentType" : 5126,
            "count" : 1,
            "max" : [
                0
            ],
            "min" : [
                0
            ],
            "type" : "SCALAR"
        },
        {
            "bufferView" : 31,
            "componentType" : 5126,
            "count" : 1,
            "type" : "VEC3"
        },
        {
            "bufferView" : 32,
            "componentType" : 5126,
            "count" : 1,
            "type" : "VEC4"
        },
        {
            "bufferView" : 33,
            "componentType" : 5126,
            "count" : 1,
            "type" : "VEC3"
        },
        {
            "bufferView" : 34,
            "componentType" : 5126,
            "count" : 144,
            "max" : [
                6
            ],
            "min" : [
                0.041666666666666664
            ],
            "type" : "SCALAR"
        },
        {
            "bufferView" : 35,
            "componentType" : 5126,
            "count" : 144,
            "type" : "VEC4"
        }
    ],
    "bufferViews" : [
        {
            "buffer" : 0,
            "byteLength" : 882084,
            "byteOffset" : 0
        },
        {
            "buffer" : 0,
            "byteLength" : 882084,
            "byteOffset" : 882084
        },
        {
            "buffer" : 0,
            "byteLength" : 1023372,
            "byteOffset" : 1764168
        },
        {
            "buffer" : 0,
            "byteLength" : 809412,
            "byteOffset" : 2787540
        },
        {
            "buffer" : 0,
            "byteLength" : 809412,
            "byteOffset" : 3596952
        },
        {
            "buffer" : 0,
            "byteLength" : 909564,
            "byteOffset" : 4406364
        },
        {
            "buffer" : 0,
            "byteLength" : 1204776,
            "byteOffset" : 5315928
        },
        {
            "buffer" : 0,
            "byteLength" : 1204776,
            "byteOffset" : 6520704
        },
        {
            "buffer" : 0,
            "byteLength" : 781656,
            "byteOffset" : 7725480
        },
        {
            "buffer" : 0,
            "byteLength" : 986820,
            "byteOffset" : 8507136
        },
        {
            "buffer" : 0,
            "byteLength" : 986820,
            "byteOffset" : 9493956
        },
        {
            "buffer" : 0,
            "byteLength" : 614808,
            "byteOffset" : 10480776
        },
        {
            "buffer" : 0,
            "byteLength" : 921900,
            "byteOffset" : 11095584
        },
        {
            "buffer" : 0,
            "byteLength" : 921900,
            "byteOffset" : 12017484
        },
        {
            "buffer" : 0,
            "byteLength" : 557676,
            "byteOffset" : 12939384
        },
        {
            "buffer" : 0,
            "byteLength" : 905496,
            "byteOffset" : 13497060
        },
        {
            "buffer" : 0,
            "byteLength" : 905496,
            "byteOffset" : 14402556
        },
        {
            "buffer" : 0,
            "byteLength" : 571416,
            "byteOffset" : 15308052
        },
        {
            "buffer" : 0,
            "byteLength" : 804600,
            "byteOffset" : 15879468
        },
        {
            "buffer" : 0,
            "byteLength" : 804600,
            "byteOffset" : 16684068
        },
        {
            "buffer" : 0,
            "byteLength" : 651864,
            "byteOffset" : 17488668
        },
        {
            "buffer" : 0,
            "byteLength" : 545832,
            "byteOffset" : 18140532
        },
        {
            "buffer" : 0,
            "byteLength" : 545832,
            "byteOffset" : 18686364
        },
        {
            "buffer" : 0,
            "byteLength" : 142644,
            "byteOffset" : 19232196
        },
        {
            "buffer" : 0,
            "byteLength" : 21120,
            "byteOffset" : 19374840
        },
        {
            "buffer" : 0,
            "byteLength" : 21120,
            "byteOffset" : 19395960
        },
        {
            "buffer" : 0,
            "byteLength" : 7200,
            "byteOffset" : 19417080
        },
        {
            "buffer" : 0,
            "byteLength" : 68832,
            "byteOffset" : 19424280
        },
        {
            "buffer" : 0,
            "byteLength" : 68832,
            "byteOffset" : 19493112
        },
        {
            "buffer" : 0,
            "byteLength" : 15024,
            "byteOffset" : 19561944
        },
        {
            "buffer" : 0,
            "byteLength" : 4,
            "byteOffset" : 19576968
        },
        {
            "buffer" : 0,
            "byteLength" : 12,
            "byteOffset" : 19576972
        },
        {
            "buffer" : 0,
            "byteLength" : 16,
            "byteOffset" : 19576984
        },
        {
            "buffer" : 0,
            "byteLength" : 12,
            "byteOffset" : 19577000
        },
        {
            "buffer" : 0,
            "byteLength" : 576,
            "byteOffset" : 19577012
        },
        {
            "buffer" : 0,
            "byteLength" : 2304,
            "byteOffset" : 19577588
        }
    ],
    "buffers" : [
        {
            "byteLength" : 19579892,
            "uri" : "scene.bin"
        }
    ]
}
